# xmcd
#
# Track frame offsets:
#	183
#	25000
#	44273
#	63530
#	79580
#	96813
#	117010
#	133735
#	148678
#	170698
#	200115
#	222515
#
# Disc length: 3155 seconds
#
# Revision: 1
# Processed by: cddbd v1.5.2PL0 Copyright (c) Steve Scherf et al.
# Submitted via: EasyCDDAExtractor 12.0.6 .1
#
DISCID=b00c510c
DTITLE=Various Artist - Favourites in Originals Vol. 6
DYEAR=1900
DGENRE=Pop
TTITLE0=Vanessa Willams - Dreamin
TTITLE1=Nicole - So Vieie Lidr SindMr
TTITLE2=Janet Jackson - Miss You Much
TTITLE3=Art of Noise Featuring Tom Jones - Kiss
TTITLE4=Carioca - Lambada
TTITLE5=E.G. Daily - This Time
TTITLE6=Nicole - Wieder Allein
TTITLE7=Carola - Radiate
TTITLE8=Communards - Never Can Say Goodbye
TTITLE9=Swing Out Sister - Twllight World
TTITLE10=Sam Brown - Stop
TTITLE11=Carpenters - When I Fall in Love
EXTD=
EXTT0=
EXTT1=
EXTT2=
EXTT3=
EXTT4=
EXTT5=
EXTT6=
EXTT7=
EXTT8=
EXTT9=
EXTT10=
EXTT11=
PLAYORDER=
